<svg xmlns="http://www.w3.org/2000/svg" viewBox="0 0 420 80" width="420" height="80" role="img" aria-label="Libreria logo">
  <title>Libreria</title>
  <!-- Background transparent -->
  <!-- Open book graphic on the left -->
  <g transform="translate(8,8)">
    <path d="M0 56 C14 42 34 32 60 32 C86 32 106 42 120 56 L120 10 C96 2 76 2 60 6 C44 2 24 2 0 10 Z" fill="#e6c35c" opacity="0.9"/>
    <path d="M120 56 C134 42 154 32 180 32 C206 32 226 42 240 56 L240 10 C216 2 196 2 180 6 C164 2 144 2 120 10 Z" fill="#c9c2b8" opacity="0.95" transform="translate(-120,0)"/>
    <path d="M60 32 L60 6" stroke="#8b5e00" stroke-width="2" stroke-linecap="round"/>
    <g fill="none" stroke="#8b5e00" stroke-width="1.2">
      <path d="M10 46 C40 34 80 34 110 46"/>
      <path d="M10 40 C40 28 80 28 110 40" opacity="0.8"/>
    </g>
  </g>
</svg>